<?xml version="1.0" encoding="UTF-8"?>
<svg id="Layer_2" data-name="Layer 2" xmlns="http://www.w3.org/2000/svg" viewBox="0 0 229 229">
  <defs>
    <style>
      .cls-1, .cls-2 {
        stroke-linecap: round;
      }

      .cls-1, .cls-2, .cls-3, .cls-4 {
        fill: none;
        stroke: #898989;
        stroke-miterlimit: 10;
      }

      .cls-1, .cls-4 {
        stroke-width: 5px;
      }

      .cls-2 {
        stroke-width: 4px;
      }

      .cls-3 {
        stroke-width: 2px;
      }
    </style>
  </defs>
  <g id="Layer_1-2" data-name="Layer 1">
    <g>
      <line class="cls-1" x1="115.83" y1="112.79" x2="162.5" y2="88.54"/>
      <line class="cls-2" x1="115" y1="114.04" x2="115" y2="40.04"/>
      <circle class="cls-4" cx="114.5" cy="114.5" r="112"/>
      <g>
        <line class="cls-4" x1="62.59" y1="205.04" x2="73.03" y2="186.82"/>
        <line class="cls-4" x1="24.27" y1="166.95" x2="42.43" y2="156.4"/>
        <line class="cls-4" x1="10.13" y1="114.81" x2="31.13" y2="114.75"/>
        <line class="cls-4" x1="23.96" y1="62.59" x2="42.18" y2="73.03"/>
        <line class="cls-4" x1="62.05" y1="24.27" x2="72.6" y2="42.43"/>
        <line class="cls-4" x1="114.19" y1="10.13" x2="114.25" y2="31.13"/>
        <line class="cls-4" x1="166.41" y1="23.96" x2="155.97" y2="42.18"/>
        <line class="cls-4" x1="204.73" y1="62.05" x2="186.57" y2="72.6"/>
        <line class="cls-4" x1="218.87" y1="114.19" x2="197.87" y2="114.25"/>
        <line class="cls-4" x1="205.04" y1="166.41" x2="186.82" y2="155.97"/>
        <line class="cls-4" x1="166.95" y1="204.73" x2="156.4" y2="186.57"/>
        <line class="cls-4" x1="114.81" y1="218.87" x2="114.75" y2="197.87"/>
      </g>
      <g>
        <line class="cls-3" x1="113.81" y1="199.18" x2="113.72" y2="209.68"/>
        <line class="cls-3" x1="99.11" y1="197.78" x2="97.21" y2="208.1"/>
        <line class="cls-3" x1="84.89" y1="193.84" x2="81.22" y2="203.68"/>
        <line class="cls-3" x1="71.56" y1="187.49" x2="66.24" y2="196.54"/>
        <line class="cls-3" x1="59.54" y1="178.93" x2="52.72" y2="186.92"/>
        <line class="cls-3" x1="49.18" y1="168.4" x2="41.09" y2="175.09"/>
        <line class="cls-3" x1="40.82" y1="156.24" x2="31.68" y2="161.42"/>
        <line class="cls-3" x1="34.69" y1="142.81" x2="24.79" y2="146.32"/>
        <line class="cls-3" x1="30.98" y1="128.53" x2="20.63" y2="130.26"/>
        <line class="cls-3" x1="29.82" y1="113.81" x2="19.32" y2="113.72"/>
        <line class="cls-3" x1="31.22" y1="99.11" x2="20.9" y2="97.21"/>
        <line class="cls-3" x1="35.16" y1="84.89" x2="25.32" y2="81.22"/>
        <line class="cls-3" x1="41.51" y1="71.56" x2="32.46" y2="66.24"/>
        <line class="cls-3" x1="50.07" y1="59.54" x2="42.08" y2="52.72"/>
        <line class="cls-3" x1="60.6" y1="49.18" x2="53.91" y2="41.09"/>
        <line class="cls-3" x1="72.76" y1="40.82" x2="67.58" y2="31.68"/>
        <line class="cls-3" x1="86.19" y1="34.69" x2="82.68" y2="24.79"/>
        <line class="cls-3" x1="100.48" y1="30.98" x2="98.74" y2="20.63"/>
        <line class="cls-3" x1="115.19" y1="29.82" x2="115.28" y2="19.32"/>
        <line class="cls-3" x1="129.89" y1="31.22" x2="131.79" y2="20.9"/>
        <line class="cls-3" x1="144.11" y1="35.16" x2="147.78" y2="25.32"/>
        <line class="cls-3" x1="157.44" y1="41.51" x2="162.76" y2="32.46"/>
        <line class="cls-3" x1="169.46" y1="50.07" x2="176.28" y2="42.08"/>
        <line class="cls-3" x1="179.82" y1="60.6" x2="187.91" y2="53.91"/>
        <line class="cls-3" x1="188.18" y1="72.76" x2="197.32" y2="67.58"/>
        <line class="cls-3" x1="194.31" y1="86.19" x2="204.21" y2="82.68"/>
        <line class="cls-3" x1="198.02" y1="100.48" x2="208.37" y2="98.74"/>
        <line class="cls-3" x1="199.18" y1="115.19" x2="209.68" y2="115.28"/>
        <line class="cls-3" x1="197.78" y1="129.89" x2="208.1" y2="131.79"/>
        <line class="cls-3" x1="193.84" y1="144.11" x2="203.68" y2="147.79"/>
        <line class="cls-3" x1="187.49" y1="157.44" x2="196.54" y2="162.76"/>
        <line class="cls-3" x1="178.93" y1="169.46" x2="186.92" y2="176.28"/>
        <line class="cls-3" x1="168.4" y1="179.82" x2="175.09" y2="187.91"/>
        <line class="cls-3" x1="156.24" y1="188.18" x2="161.42" y2="197.32"/>
        <line class="cls-3" x1="142.81" y1="194.31" x2="146.33" y2="204.21"/>
        <line class="cls-3" x1="128.52" y1="198.02" x2="130.26" y2="208.37"/>
      </g>
    </g>
  </g>
</svg>
