<svg width="41" height="74" viewBox="0 0 41 74" fill="none" xmlns="http://www.w3.org/2000/svg">
<path d="M41 50.5168C41 54.0672 40.3888 57.2794 39.1665 60.1535C37.9441 63.0276 36.1954 65.496 33.9205 67.5586C31.6795 69.6212 28.9631 71.2104 25.7714 72.3263C22.5797 73.4421 19.0315 74 15.1267 74C8.33582 74 3.29358 72.9856 0 70.9568V62.1316C4.95735 65.31 10.0335 66.8992 15.2286 66.8992C17.877 66.8992 20.2538 66.5104 22.359 65.7327C24.4981 64.955 26.3147 63.873 27.8087 62.4866C29.3027 61.1003 30.4402 59.4266 31.2211 57.4654C32.036 55.5042 32.4435 53.3571 32.4435 51.024C32.4435 46.2902 30.8476 42.5876 27.6559 39.9164C24.4642 37.2113 19.8294 35.8588 13.7516 35.8588C12.7669 35.8588 11.7313 35.8757 10.6447 35.9095C9.55818 35.9433 8.47164 35.9941 7.38509 36.0617C6.29855 36.0955 5.22899 36.1462 4.1764 36.2138C3.15776 36.2815 2.22402 36.366 1.37516 36.4674L3.87081 0H37.6385V7.50651H11.1031L9.62609 28.8595C10.7126 28.7919 11.8671 28.7411 13.0894 28.7073C14.3118 28.6397 15.3983 28.6059 16.3491 28.6059C20.2199 28.6059 23.6832 29.1131 26.7391 30.1275C29.795 31.1419 32.3756 32.5958 34.4807 34.4894C36.6199 36.3491 38.2327 38.6484 39.3193 41.3873C40.4398 44.0923 41 47.1355 41 50.5168Z" fill="#898989"/>
</svg>
