<svg width="42" height="48" viewBox="0 0 42 48" fill="none" xmlns="http://www.w3.org/2000/svg">
  <path d="M31.5867 15.0636L24.3024 22.2978L2.91968 0.527618C3.99207 -0.119814 5.38942 -0.219804 6.62679 0.500121L31.5867 15.0636Z" fill="#010203"/>
  <path d="M31.7668 32.2518L6.62689 46.9178C5.12455 47.7952 3.38223 47.4552 2.27734 46.4004L24.3025 24.6301L31.7668 32.2518Z" fill="#010203"/>
  <path d="M40.1958 26.8474L32.9891 31.052L32.9316 31.0845L25.4698 23.4628L32.7541 16.2285L32.8116 16.261L40.1983 20.5706C42.6006 21.9729 42.6006 25.4451 40.1983 26.8474H40.1958Z" fill="#010203"/>
  <path d="M1.11239 45.2355C1.09739 45.2205 1.08239 45.2055 1.0674 45.1905C0.417463 44.548 6.65052e-06 43.6531 6.65052e-06 42.6132V4.80468C-0.00249309 3.45732 0.699934 2.35244 1.69983 1.7275C1.71733 1.71501 1.73733 1.70501 1.75482 1.69501L23.1376 23.4652L1.11239 45.2355Z" fill="#010203"/>
</svg>
