<?xml version="1.0" encoding="UTF-8"?>
<svg id="Layer_2" data-name="Layer 2" xmlns="http://www.w3.org/2000/svg" viewBox="0 0 284.43 289.59">
  <defs>
    <style>
      .cls-1 {
        fill: #898989;
      }
    </style>
  </defs>
  <g id="Layer_1-2" data-name="Layer 1">
    <path class="cls-1" d="M154.5,289.59C69.31,289.59,0,220.28,0,135.09,0,79.75,29.89,28.3,78,.83h0c5.57-3.18,11.58,3.43,7.87,8.67h0c-16.93,23.95-25.88,52.16-25.88,81.58,0,78.02,63.48,141.5,141.5,141.5,26.1,0,51.6-7.17,73.75-20.72h0c5.48-3.35,11.68,3.08,8.13,8.43h0c-28.74,43.39-76.92,69.29-128.88,69.29ZM52.9,52.42c1.63-6.3-6.55-10.29-10.55-5.16-19.32,24.72-30.35,55.56-30.35,87.83,0,78.58,63.93,142.5,142.5,142.5,29.27,0,57.23-8.91,80.61-24.96,5.34-3.67,1.76-12.01-4.61-10.79-9.51,1.82-19.22,2.75-29,2.75-84.64,0-153.5-68.86-153.5-153.5,0-13.19,1.66-26.16,4.9-38.67Zm120.2,6.57l16.14-6.57c1.74-.71,1.55-3.23-.27-3.67l-17.57-4.27-6.57-16.14c-.71-1.74-3.23-1.55-3.67,.27l-4.27,17.57-16.14,6.57c-1.74,.71-1.55,3.23,.27,3.67l17.57,4.27,6.57,16.14c.71,1.74,3.23,1.55,3.67-.27l4.27-17.57Zm80.14,57.49l12.78-5.2c1.4-.57,1.25-2.6-.22-2.95l-13.92-3.38-5.2-12.78c-.57-1.4-2.6-1.25-2.95,.22l-3.38,13.92-12.78,5.2c-1.4,.57-1.25,2.6,.22,2.95l13.92,3.38,5.2,12.78c.57,1.4,2.6,1.25,2.95-.22l3.38-13.92Z"/>
  </g>
</svg>
