<?xml version="1.0" encoding="UTF-8"?>
<svg id="Layer_2" data-name="Layer 2" xmlns="http://www.w3.org/2000/svg" viewBox="0 0 352.32 352.32">
  <defs>
    <style>
      .cls-1 {
        fill: #898989;
      }
    </style>
  </defs>
  <g id="Layer_1-2" data-name="Layer 1">
    <g>
      <path class="cls-1" d="M176.16,295.51c-65.81,0-119.35-53.54-119.35-119.35S110.35,56.81,176.16,56.81s119.35,53.54,119.35,119.35-53.54,119.35-119.35,119.35Zm0-222.69c-56.99,0-103.35,46.36-103.35,103.35s46.36,103.35,103.35,103.35,103.35-46.36,103.35-103.35-46.36-103.35-103.35-103.35Z"/>
      <g>
        <path class="cls-1" d="M144.12,306.89l32.37,3.87c2.62,.31,4.8,1.95,5.84,4.37,1.04,2.42,.71,5.13-.87,7.24l-19.53,26.1c-1.58,2.11-4.08,3.18-6.7,2.87s-4.8-1.95-5.84-4.37l-12.83-29.97c-1.04-2.42-.71-5.13,.87-7.24,1.58-2.11,4.08-3.18,6.7-2.87Zm29.45,11.98l-28.54-3.41,11.31,26.42,17.22-23.01Zm-16.46,24.78h0s0,0,0,0h0Z"/>
        <path class="cls-1" d="M67.58,255.71l22.31,23.77c1.8,1.92,2.42,4.57,1.66,7.1-.76,2.52-2.75,4.39-5.32,4.99l-31.74,7.43c-2.57,.6-5.17-.19-6.98-2.11s-2.42-4.58-1.66-7.1l9.43-31.2c.76-2.52,2.75-4.39,5.32-4.99,2.57-.6,5.17,.19,6.98,2.11Zm14.86,28.11l-19.67-20.96-8.32,27.51,27.98-6.55Zm-28.54,8.4h0s0,0,0,0h0Z"/>
        <path class="cls-1" d="M41.85,167.31l1.81,32.55c.15,2.63-1.08,5.06-3.29,6.51-2.21,1.44-4.93,1.59-7.28,.4l-29.09-14.71c-2.35-1.19-3.84-3.47-3.99-6.1s1.08-5.06,3.29-6.51l27.28-17.84c2.21-1.44,4.93-1.59,7.28-.4,2.35,1.19,3.84,3.47,3.99,6.1Zm-6.69,31.09l-1.6-28.7-24.05,15.73,25.65,12.97Zm-27.26-11.91h0s0,0,0,0h0Z"/>
        <path class="cls-1" d="M78.97,83.04l-19.54,26.1c-1.58,2.11-4.08,3.18-6.7,2.87-2.62-.31-4.8-1.95-5.84-4.37l-12.83-29.97c-1.04-2.42-.71-5.13,.87-7.24s4.08-3.18,6.7-2.87l32.37,3.87c2.62,.31,4.8,1.95,5.84,4.37,1.04,2.42,.71,5.13-.87,7.24Zm-25.11,19.52l17.22-23.01-28.54-3.41,11.31,26.42Zm-13.23-26.65h0s0,0,0,0h0Z"/>
        <path class="cls-1" d="M161.56,42.35l-31.74,7.43c-2.57,.6-5.17-.19-6.98-2.11-1.8-1.92-2.43-4.57-1.66-7.1l9.43-31.2c.76-2.52,2.75-4.39,5.32-4.99s5.17,.19,6.98,2.11l22.31,23.77c1.8,1.92,2.43,4.57,1.66,7.1-.76,2.52-2.75,4.39-5.32,4.99Zm-31.78-1.19l27.98-6.55-19.67-20.96-8.31,27.51Zm6.99-28.92h0s0,0,0,0h0Z"/>
        <path class="cls-1" d="M250.99,64.27l-29.09-14.71c-2.35-1.19-3.84-3.47-3.99-6.1-.15-2.63,1.08-5.06,3.29-6.51l27.28-17.84c2.21-1.44,4.93-1.59,7.28-.41s3.84,3.47,3.99,6.1l1.81,32.55c.15,2.63-1.08,5.06-3.29,6.51-2.21,1.44-4.93,1.59-7.28,.41Zm-23.58-21.34l25.65,12.97-1.6-28.7-24.05,15.73Zm23.95-17.66h0s0,0,0,0h0Z"/>
        <path class="cls-1" d="M305.4,138.55l-12.83-29.97c-1.04-2.42-.71-5.13,.87-7.24,1.58-2.11,4.08-3.18,6.7-2.87l32.37,3.87c2.62,.31,4.8,1.95,5.84,4.37s.71,5.13-.87,7.24l-19.54,26.1c-1.58,2.11-4.08,3.18-6.7,2.87-2.62-.31-4.8-1.95-5.84-4.37Zm-4.35-31.5l11.31,26.42,17.22-23.01-28.54-3.41Zm29.69,1.87h0s0,0,0,0h0Z"/>
        <path class="cls-1" d="M299.34,230.42l9.43-31.2c.76-2.52,2.75-4.39,5.32-4.99,2.57-.6,5.17,.19,6.98,2.11l22.31,23.77c1.8,1.92,2.43,4.58,1.66,7.1s-2.75,4.39-5.32,4.99l-31.74,7.43c-2.57,.6-5.17-.19-6.98-2.11-1.8-1.92-2.43-4.57-1.66-7.1Zm16.92-26.93l-8.32,27.51,27.98-6.55-19.67-20.96Zm21.55,20.52h0s0,0,0,0h0Z"/>
        <path class="cls-1" d="M235.65,296.9l27.28-17.84c2.21-1.44,4.93-1.59,7.28-.4,2.35,1.19,3.84,3.47,3.99,6.1l1.81,32.55c.15,2.63-1.08,5.06-3.29,6.51s-4.93,1.59-7.28,.4l-29.09-14.71c-2.35-1.19-3.84-3.47-3.99-6.1-.15-2.63,1.08-5.06,3.29-6.51Zm30.27-9.75l-24.05,15.73,25.65,12.97-1.6-28.7Zm3.32,29.57h0s0,0,0,0h0Z"/>
      </g>
    </g>
  </g>
</svg>
