<svg width="291" height="109" viewBox="0 0 291 109" fill="none" xmlns="http://www.w3.org/2000/svg">
  <path d="M133.616 33.2542H127.987L113.157 10.4352C112.782 9.8579 112.471 9.25892 112.226 8.63829H112.096C112.211 9.30222 112.269 10.7239 112.269 12.9033V33.2542H107.29V2.20827H113.287L127.619 24.486C128.225 25.4097 128.615 26.0448 128.788 26.3912H128.875C128.73 25.5685 128.658 24.1757 128.658 22.2128V2.20827H133.616V33.2542Z" fill="#fff"/>
  <path d="M150.589 33.7738C147.169 33.7738 144.434 32.7418 142.384 30.6779C140.349 28.5995 139.332 25.85 139.332 22.4293C139.332 18.7055 140.392 15.7972 142.514 13.7044C144.65 11.6115 147.522 10.5651 151.131 10.5651C154.595 10.5651 157.294 11.5827 159.228 13.6178C161.162 15.6529 162.129 18.4746 162.129 22.0829C162.129 25.619 161.082 28.4552 158.99 30.5913C156.911 32.713 154.111 33.7738 150.589 33.7738ZM150.828 14.5704C148.865 14.5704 147.313 15.2559 146.173 16.6271C145.033 17.9983 144.463 19.889 144.463 22.2994C144.463 24.6231 145.04 26.4562 146.195 27.7985C147.349 29.1263 148.894 29.7902 150.828 29.7902C152.805 29.7902 154.32 29.1335 155.374 27.8201C156.442 26.5067 156.976 24.6376 156.976 22.2128C156.976 19.7736 156.442 17.89 155.374 16.5622C154.32 15.2343 152.805 14.5704 150.828 14.5704Z" fill="#fff"/>
  <path d="M172.954 21.9963V33.2542H167.823V2.20827H177.24C180.805 2.20827 183.569 3.03819 185.532 4.69801C187.495 6.35784 188.477 8.69603 188.477 11.7126C188.477 14.7291 187.452 17.1972 185.402 19.1168C183.353 21.0365 180.582 21.9963 177.089 21.9963H172.954ZM172.954 6.45165V17.7962H176.288C178.496 17.7962 180.178 17.2838 181.332 16.2591C182.487 15.2343 183.064 13.791 183.064 11.9291C183.064 8.27746 180.943 6.45165 176.699 6.45165H172.954Z" fill="#fff"/>
  <path d="M212.898 33.2542H207.875V21.1303C207.875 16.7426 206.41 14.5487 203.48 14.5487C202.008 14.5487 200.767 15.1838 199.756 16.4539C198.746 17.724 198.241 19.3478 198.241 21.3251V33.2542H193.196V0.432983H198.241V14.7652H198.327C200.002 11.9652 202.398 10.5651 205.515 10.5651C210.437 10.5651 212.898 13.5745 212.898 19.5931V33.2542Z" fill="#fff"/>
  <path d="M228.832 33.7738C225.411 33.7738 222.676 32.7418 220.627 30.6779C218.592 28.5995 217.574 25.85 217.574 22.4293C217.574 18.7055 218.635 15.7972 220.757 13.7044C222.893 11.6115 225.765 10.5651 229.373 10.5651C232.837 10.5651 235.536 11.5827 237.47 13.6178C239.405 15.6529 240.372 18.4746 240.372 22.0829C240.372 25.619 239.325 28.4552 237.232 30.5913C235.154 32.713 232.354 33.7738 228.832 33.7738ZM229.07 14.5704C227.107 14.5704 225.556 15.2559 224.416 16.6271C223.275 17.9983 222.705 19.889 222.705 22.2994C222.705 24.6231 223.283 26.4562 224.437 27.7985C225.592 29.1263 227.136 29.7902 229.07 29.7902C231.048 29.7902 232.563 29.1335 233.617 27.8201C234.685 26.5067 235.219 24.6376 235.219 22.2128C235.219 19.7736 234.685 17.89 233.617 16.5622C232.563 15.2343 231.048 14.5704 229.07 14.5704Z" fill="#fff"/>
  <path d="M265.247 33.2542H260.225V20.7622C260.225 16.6199 258.76 14.5487 255.83 14.5487C254.3 14.5487 253.037 15.126 252.041 16.2807C251.045 17.4209 250.547 18.8643 250.547 20.6107V33.2542H245.503V11.0847H250.547V14.7652H250.634C252.293 11.9652 254.689 10.5651 257.821 10.5651C260.232 10.5651 262.072 11.3517 263.342 12.925C264.612 14.4838 265.247 16.7426 265.247 19.7014V33.2542Z" fill="#fff"/>
  <path d="M290.166 23.5334H275.055C275.112 25.5829 275.74 27.1634 276.938 28.2747C278.151 29.3861 279.81 29.9418 281.918 29.9418C284.285 29.9418 286.457 29.2346 288.434 27.8201V31.8686C286.414 33.1388 283.744 33.7738 280.424 33.7738C277.162 33.7738 274.6 32.7707 272.738 30.7645C270.891 28.7438 269.967 25.9077 269.967 22.2561C269.967 18.8065 270.985 15.9993 273.02 13.8343C275.069 11.6548 277.609 10.5651 280.64 10.5651C283.671 10.5651 286.017 11.5394 287.677 13.4879C289.336 15.4364 290.166 18.1426 290.166 21.6066V23.5334ZM285.317 19.9828C285.302 18.1787 284.877 16.7787 284.039 15.7828C283.202 14.7724 282.048 14.2673 280.575 14.2673C279.132 14.2673 277.905 14.7941 276.895 15.8477C275.899 16.9013 275.286 18.2797 275.055 19.9828H285.317Z" fill="#fff"/>
  <path d="M124.48 92.3729H107.29V61.3269H112.442V88.0212H124.48V92.3729Z" fill="#fff"/>
  <path d="M145.437 92.3729H140.566V88.9089H140.479C138.949 91.5646 136.705 92.8925 133.746 92.8925C131.566 92.8925 129.856 92.3007 128.615 91.1172C127.388 89.9336 126.775 88.3676 126.775 86.4191C126.775 82.2335 129.185 79.7943 134.006 79.1015L140.587 78.1705C140.587 75.0097 139.086 73.4292 136.084 73.4292C133.443 73.4292 131.061 74.3385 128.94 76.1571V71.7622C131.278 70.3766 133.977 69.6838 137.037 69.6838C142.637 69.6838 145.437 72.4405 145.437 77.954V92.3729ZM140.587 81.483L135.932 82.1325C134.489 82.3201 133.399 82.6737 132.663 83.1933C131.942 83.6985 131.581 84.5933 131.581 85.8779C131.581 86.8161 131.913 87.5882 132.577 88.1944C133.255 88.7862 134.157 89.0821 135.283 89.0821C136.813 89.0821 138.076 88.548 139.072 87.48C140.082 86.3975 140.587 85.0408 140.587 83.4098V81.483Z" fill="#fff"/>
  <path d="M170.919 92.3729H165.896V88.8656H165.809C164.352 91.5502 162.086 92.8925 159.011 92.8925C153.772 92.8925 151.152 89.746 151.152 83.4531V70.2034H156.175V82.9335C156.175 86.9171 157.712 88.9089 160.787 88.9089C162.273 88.9089 163.493 88.3604 164.445 87.2635C165.412 86.1666 165.896 84.7305 165.896 82.9552V70.2034H170.919V92.3729Z" fill="#fff"/>
  <path d="M197.223 92.3729H192.201V79.8809C192.201 75.7385 190.736 73.6674 187.806 73.6674C186.276 73.6674 185.013 74.2447 184.017 75.3994C183.021 76.5396 182.523 77.9829 182.523 79.7293V92.3729H177.479V70.2034H182.523V73.8839H182.61C184.269 71.0838 186.665 69.6838 189.797 69.6838C192.208 69.6838 194.048 70.4704 195.318 72.0436C196.588 73.6024 197.223 75.8612 197.223 78.82V92.3729Z" fill="#fff"/>
  <path d="M219.241 91.3553C217.466 92.3801 215.366 92.8925 212.941 92.8925C209.65 92.8925 206.995 91.8677 204.974 89.8182C202.953 87.7542 201.943 85.0841 201.943 81.8077C201.943 78.1561 203.025 75.2262 205.19 73.0179C207.37 70.7951 210.278 69.6838 213.915 69.6838C215.936 69.6838 217.719 70.0374 219.263 70.7446V75.421C217.719 74.2663 216.073 73.689 214.327 73.689C212.205 73.689 210.466 74.4107 209.109 75.854C207.752 77.2829 207.074 79.1592 207.074 81.483C207.074 83.7779 207.709 85.5892 208.979 86.9171C210.264 88.245 211.981 88.9089 214.132 88.9089C215.936 88.9089 217.639 88.2666 219.241 86.982V91.3553Z" fill="#fff"/>
  <path d="M243.944 92.3729H238.921V80.2489C238.921 75.8612 237.456 73.6674 234.526 73.6674C233.054 73.6674 231.813 74.3024 230.802 75.5725C229.792 76.8427 229.287 78.4664 229.287 80.4438V92.3729H224.242V59.5516H229.287V73.8839H229.373C231.048 71.0838 233.444 69.6838 236.561 69.6838C241.483 69.6838 243.944 72.6931 243.944 78.7118V92.3729Z" fill="#fff"/>
  <path d="M268.82 82.6521H253.708C253.766 84.7016 254.393 86.282 255.591 87.3934C256.804 88.5048 258.464 89.0604 260.571 89.0604C262.938 89.0604 265.11 88.3532 267.088 86.9387V90.9873C265.067 92.2574 262.397 92.8925 259.077 92.8925C255.815 92.8925 253.253 91.8894 251.391 89.8831C249.544 87.8625 248.62 85.0263 248.62 81.3747C248.62 77.9252 249.638 75.1179 251.673 72.9529C253.722 70.7735 256.263 69.6838 259.294 69.6838C262.325 69.6838 264.67 70.658 266.33 72.6065C267.99 74.555 268.82 77.2612 268.82 80.7252V82.6521ZM263.97 79.1015C263.956 77.2973 263.53 75.8973 262.693 74.9014C261.855 73.8911 260.701 73.3859 259.229 73.3859C257.785 73.3859 256.558 73.9127 255.548 74.9664C254.552 76.02 253.939 77.3984 253.708 79.1015H263.97Z" fill="#fff"/>
  <path d="M286.464 74.988C285.858 74.5117 284.985 74.2736 283.845 74.2736C282.358 74.2736 281.117 74.9447 280.121 76.287C279.125 77.6293 278.627 79.4551 278.627 81.7644V92.3729H273.604V70.2034H278.627V74.7715H278.714C279.204 73.2127 279.955 72.0003 280.965 71.1343C281.99 70.2539 283.13 69.8137 284.386 69.8137C285.295 69.8137 285.988 69.9508 286.464 70.225V74.988Z" fill="#fff"/>
  <path fill-rule="evenodd" clip-rule="evenodd" d="M36.9492 31.1188C23.4557 31.1188 12.5963 42.0442 12.5963 55.4238C12.5963 68.8033 23.4557 79.7287 36.9492 79.7287C50.4426 79.7287 61.302 68.8033 61.302 55.4238C61.302 42.0442 50.4426 31.1188 36.9492 31.1188ZM0 55.4238C0 35.0186 16.5413 18.4746 36.9492 18.4746C57.3571 18.4746 73.8983 35.0186 73.8983 55.4238C73.8983 75.8289 57.3571 92.3729 36.9492 92.3729C16.5413 92.3729 0 75.8289 0 55.4238Z" fill="#fff"/>
  <path d="M9.48362 51.7288H3.44859C1.54399 51.7288 0 53.2371 0 55.0977V105.631C0 107.492 1.54399 109 3.44859 109H9.48362C11.3882 109 12.9322 107.492 12.9322 105.631V55.0977C12.9322 53.2371 11.3882 51.7288 9.48362 51.7288Z" fill="#fff"/>
  <path d="M70.4497 0H64.4147C62.5101 0 60.9661 1.5083 60.9661 3.36889V53.9023C60.9661 55.7629 62.5101 57.2712 64.4147 57.2712H70.4497C72.3543 57.2712 73.8983 55.7629 73.8983 53.9023V3.36889C73.8983 1.5083 72.3543 0 70.4497 0Z" fill="#fff"/>
</svg>
