<svg width="78" height="78" viewBox="0 0 78 78" fill="none" xmlns="http://www.w3.org/2000/svg">
<path d="M39 76C59.4345 76 76 59.4345 76 39C76 18.5655 59.4345 2 39 2C18.5655 2 2 18.5655 2 39C2 59.4345 18.5655 76 39 76Z" stroke="#898989" stroke-width="3" stroke-linecap="round" stroke-linejoin="round"/>
<path d="M27.4375 32.0625C29.9918 32.0625 32.0625 29.9918 32.0625 27.4375C32.0625 24.8832 29.9918 22.8125 27.4375 22.8125C24.8832 22.8125 22.8125 24.8832 22.8125 27.4375C22.8125 29.9918 24.8832 32.0625 27.4375 32.0625Z" fill="#898989"/>
<path d="M50.5625 32.0625C53.1168 32.0625 55.1875 29.9918 55.1875 27.4375C55.1875 24.8832 53.1168 22.8125 50.5625 22.8125C48.0082 22.8125 45.9375 24.8832 45.9375 27.4375C45.9375 29.9918 48.0082 32.0625 50.5625 32.0625Z" fill="#898989"/>
<path d="M25.125 45.625C27.9139 51.7901 32.5389 54.875 39 54.875C45.4611 54.875 50.0861 51.7901 52.875 45.625" stroke="#898989" stroke-width="3" stroke-linecap="round" stroke-linejoin="round"/>
</svg>
