<?xml version="1.0" encoding="utf-8"?>
<svg viewBox="17.759 20.212 73.53 73.53" xmlns="http://www.w3.org/2000/svg">
  <path id="Path_5" class="st2" d="M 143.592 74.88 L 111.452 74.88 C 96.292 74.88 90.742 80.4 90.742 95.56 L 90.742 127.7 C 90.742 142.86 96.292 148.41 111.452 148.41 L 143.592 148.41 C 158.722 148.41 164.272 142.86 164.272 127.7 L 164.272 95.56 C 164.272 80.4 158.752 74.88 143.592 74.88 Z" style="fill: rgb(1, 2, 2);" transform="matrix(1, 0, 0, 1, -72.982582, -54.668228)"/>
  <path id="Path_6" class="st3" d="M 122.122 119.25 L 121.232 121.23 L 119.252 121.23 L 123.472 111.63 L 125.182 111.63 L 129.402 121.23 L 127.362 121.23 L 126.502 119.25 L 122.122 119.25 Z M 122.822 117.51 L 125.772 117.51 L 124.292 114.08 L 122.822 117.51 Z M 154.142 111.63 L 156.092 111.63 L 156.092 121.23 L 154.142 121.23 L 154.142 111.63 Z M 146.492 119.49 L 151.842 119.49 L 151.842 121.23 L 144.572 121.23 L 144.572 111.63 L 151.632 111.63 L 151.632 113.4 L 146.492 113.4 L 146.492 115.35 L 150.042 115.35 L 150.042 117.12 L 146.492 117.12 L 146.492 119.49 Z M 140.962 111.63 L 143.002 111.63 L 139.662 121.26 L 138.012 121.26 L 135.822 114.94 L 133.632 121.26 L 132.032 121.26 L 128.662 111.63 L 130.762 111.63 L 132.892 118.25 L 135.052 111.63 L 136.652 111.63 L 138.842 118.25 L 140.962 111.63 Z M 116.302 111.63 L 118.252 111.63 L 118.252 117.07 C 118.252 119.82 116.742 121.41 114.082 121.41 C 111.482 121.41 109.972 119.84 109.972 117.13 L 109.972 111.64 L 111.922 111.64 L 111.922 117.08 C 111.922 118.7 112.692 119.56 114.112 119.56 C 115.532 119.56 116.302 118.7 116.302 117.14 L 116.302 111.63 L 116.302 111.63 Z M 105.312 111.63 L 107.262 111.63 L 107.262 121.26 L 105.312 121.26 L 105.312 117.33 L 100.912 117.33 L 100.912 121.26 L 98.962 121.26 L 98.962 111.63 L 100.912 111.63 L 100.912 115.5 L 105.312 115.5 L 105.312 111.63 Z M 127.522 99.4 C 120.752 99.4 115.292 93.91 115.292 87.17 L 117.002 87.17 C 117.002 92.96 121.732 97.66 127.522 97.66 C 133.312 97.66 138.042 92.96 138.042 87.17 L 139.752 87.17 C 139.752 93.9 134.262 99.4 127.522 99.4 Z" style="clip-rule: evenodd; fill: rgb(255, 255, 255); fill-rule: evenodd;" transform="matrix(1, 0, 0, 1, -72.982582, -54.668228)"/>
</svg>